<?xml version="1.0" encoding="UTF-8"?>
<svg id="Layer_1" data-name="Layer 1" xmlns="http://www.w3.org/2000/svg" viewBox="0 0 960 960">
  <defs>
    <style>
      .cls-1 {
        fill: #195974;
      }

      .cls-1, .cls-2 {
        stroke-width: 0px;
      }
    </style>
  </defs>
  <path id="path14-5-7-2" class="cls-2" d="M318.93,321.85c-60.52,26.39-160.45,60.27-133.64,107.54,32.9,57.12,223.41,31.91,159.23,107.53-43.06,50.82-62.96,75.64-72.31,92.97,81.24-23.24,134.86-103.6,121.86-189.86-7.31-50.03-35.75-92.17-75.15-118.18ZM83.34,368.33c-23.56,34.27-34.53,77.21-28.03,121.72,13.81,93.74,100.74,158.74,194.16,144.95,1.22-.39,2.43-.78,3.66-.78,40.21-81.94-46.31-82.72-19.5-126.44,25.18-40.57-154.36-40.57-150.29-139.45ZM446.79,369.71v210.74h51.18v-185.13c0-14.18-11.38-25.6-25.59-25.6h-25.59ZM726.82,370.08v210.35h100.33c50.37,0,79.62-21.67,79.62-59.09v-.4c-.41-24.03-10.97-39.78-34.94-50.81,15.44-10.64,23.16-24.82,23.16-43.33v-.79c0-14.97-4.88-26.78-15.03-37.02-12.59-12.61-31.68-18.91-55.64-18.91h-97.49ZM517.9,370.22v210.34h82.45c31.28,0,60.12-10.64,80.43-30.33,19.91-19.29,31.27-45.69,31.27-74.84v-.79c.42-60.66-46.71-104.39-111.29-104.39h-82.86ZM228.12,410.48c23.5-.61,46.77,23.12,21.75,22.45-29.24-1.18-41.02-15.76-34.53-19.3,4.06-2.09,8.42-3.04,12.78-3.15ZM776.79,416.16h41.02c11.78,0,26.4,3.15,26.4,17.72v.4c0,12.21-9.75,18.51-29.24,18.51h-38.18v-36.63ZM569.48,417.1h31.28c34.93,0,58.09,23.24,58.09,58.3v.39c0,34.66-23.56,57.91-58.09,57.91h-31.28v-116.6ZM272.56,428.12c1.81.05,4.36.55,7.78,1.66,15.84,5.12,13.41,12.61,2.85,11.82-8.91-1-20.42-13.77-10.63-13.48ZM302.2,447.1c.41-.01.84,0,1.3.02,7.31,0,17.87,9.45,2.44,6.3-10.28-2.22-9.85-6.16-3.73-6.32ZM776.79,496.52h48.75c19.9,0,30.05,6.3,30.05,18.91v.4c-.41,12.99-9.75,19.3-28.84,19.3h-49.96v-38.61Z"/>
  <path id="path20-5-4" class="cls-1" d="M234.04,507.38c-27.22,43.73,59.71,44.52,19.5,126.45-1.22.39-2.43.39-3.66.79-93.83,13.78-180.76-51.21-194.57-144.96-6.5-44.51,4.87-87.44,28.02-121.71-4.06,98.87,175.88,98.87,150.7,139.44M272.22,629.89c9.35-17.33,29.25-42.54,72.31-92.97,64.59-75.63-126.33-50.42-159.23-107.53-26.81-47.27,73.52-81.15,134.05-107.54,39.4,26,67.83,68.15,75.15,118.57,13,85.48-41.03,166.23-122.27,189.47M215.76,413.24c-6.5,3.54,4.88,18.51,34.53,19.3,29.25.79-8.53-33.09-34.53-19.3M280.75,429.39c-21.94-7.09-7.72,10.64,2.84,11.82,10.56.78,12.59-6.7-2.84-11.82M303.5,446.72c-7.31-.39-8.53,3.94,2.44,6.3,15.44,3.15,4.87-6.3-2.44-6.3"/>
</svg>