<?xml version="1.0" encoding="utf-8"?>
<!-- Generator: Adobe Illustrator 24.3.0, SVG Export Plug-In . SVG Version: 6.00 Build 0)  -->
<svg version="1.0" id="katman_1" xmlns="http://www.w3.org/2000/svg" xmlns:xlink="http://www.w3.org/1999/xlink" x="0px" y="0px"
	 viewBox="0 0 841.89 595.28" style="enable-background:new 0 0 841.89 595.28;" xml:space="preserve">
<style type="text/css">
	.st0{fill:#0B3C47;}
	.st1{fill:url(#SVGID_1_);}
	.st2{fill:url(#SVGID_2_);}
	.st3{fill:url(#SVGID_3_);}
	.st4{fill:url(#SVGID_4_);}
	.st5{fill:url(#SVGID_5_);}
	.st6{fill:url(#SVGID_6_);}
	.st7{fill:url(#SVGID_7_);}
	.st8{fill:url(#SVGID_8_);}
	.st9{fill:url(#SVGID_9_);}
	.st10{fill:url(#SVGID_10_);}
	.st11{fill:url(#SVGID_11_);}
	.st12{fill:url(#SVGID_12_);}
	.st13{fill:url(#SVGID_13_);}
	.st14{fill:url(#SVGID_14_);}
	.st15{fill:url(#SVGID_15_);}
	.st16{fill:url(#SVGID_16_);}
	.st17{fill:url(#SVGID_17_);}
	.st18{fill:url(#SVGID_18_);}
	.st19{fill:url(#SVGID_19_);}
	.st20{fill:url(#SVGID_20_);}
	.st21{fill:url(#SVGID_21_);}
	.st22{fill:url(#SVGID_22_);}
	.st23{fill:url(#SVGID_23_);}
	.st24{fill:url(#SVGID_24_);}
	.st25{fill:url(#SVGID_25_);}
	.st26{fill:url(#SVGID_26_);}
	.st27{fill:url(#SVGID_27_);}
	.st28{fill:url(#SVGID_28_);}
	.st29{fill:url(#SVGID_29_);}
	.st30{fill:url(#SVGID_30_);}
	.st31{fill:url(#SVGID_31_);}
	.st32{fill:url(#SVGID_32_);}
	.st33{fill:url(#SVGID_33_);}
	.st34{fill:url(#SVGID_34_);}
	.st35{fill:url(#SVGID_35_);}
	.st36{fill:url(#SVGID_36_);}
	.st37{fill:url(#SVGID_37_);}
</style>
<g>
	<g>
		<path class="st0" d="M102.31,120.38v176.13H78.59V120.38H102.31z"/>
		<path class="st0" d="M142.91,254.86v6.3c0,10.3,3.41,17.41,12.67,17.41c8.45,0,12.15-5.26,12.15-15.79
			c0-10.53-3.18-16.6-19.26-27.13c-18.45-11.86-27.13-21.63-27.13-40.89c0-21.63,11.34-35.86,34.3-35.86
			c24.76,0,34.01,14.52,34.01,37.42v5.78h-22.96v-7.92c0-10.3-3.18-15.27-11.05-15.27c-7.64,0-10.82,5.55-10.82,14
			c0,8.68,2.89,12.67,15.79,21.11c22.15,14.23,30.83,23.72,30.83,46.16c0,25.34-12.15,38.52-36.67,38.52
			c-28.98,0-35.86-18.45-35.86-37.71v-6.07h24V254.86z"/>
		<path class="st0" d="M206.71,120.38h35.34c37.71,0,44.83,21.11,44.83,51.65v68.54c0,26.9-4.51,55.88-45.35,55.88h-34.82V120.38z
			 M230.43,276.21h9.49c19.26,0,22.96-11.63,22.96-31.93v-74.33c0-17.93-3.18-29.27-22.96-29.27h-9.49V276.21z"/>
		<path class="st0" d="M307.94,120.38h33.72c29.27,0,40.32,14.23,40.32,39.28v7.11c0,24.76-8.16,32.16-16.37,35.57
			c8.68,2.89,19.78,10.3,19.78,35.34v13.19c0,30.08-11.63,45.64-41.94,45.64h-35.52V120.38z M339.58,193.2
			c15.56,0,20.01-5.26,20.01-24v-7.4c0-15.04-5.26-21.63-19.26-21.63h-9.49v52.98h8.73V193.2z M330.9,277.02h10.01
			c16.89,0,21.34-7.92,21.34-26.61v-12.15c0-17.93-5.55-25.57-22.67-25.57h-8.68V277.02L330.9,277.02z"/>
	</g>
	<g>
		<path class="st0" d="M84.78,408.21v56.57h-7.64v-56.57H84.78z"/>
		<path class="st0" d="M100.34,451.41v2.02c0,3.3,1.1,5.61,4.05,5.61c2.72,0,3.88-1.68,3.88-5.09s-1.04-5.32-6.19-8.73
			c-5.9-3.82-8.73-6.94-8.73-13.13c0-6.94,3.64-11.51,10.99-11.51c7.98,0,10.93,4.69,10.93,12.03v1.85h-7.29v-2.55
			c0-3.3-1.04-4.92-3.59-4.92c-2.43,0-3.47,1.79-3.47,4.51c0,2.78,0.93,4.05,5.09,6.77c7.11,4.57,9.89,7.64,9.89,14.81
			c0,8.16-3.88,12.38-11.74,12.38c-9.31,0-11.51-5.9-11.51-12.09v-1.97L100.34,451.41L100.34,451.41z"/>
		<path class="st0" d="M123.65,464.78v-59h7.52v59H123.65z"/>
		<path class="st0" d="M162.41,456.5c0,2.78,0,6.77,0.17,8.27h-6.94c-0.17-0.93-0.52-2.72-0.52-3.3c-1.45,2.89-3.99,3.99-7.17,3.99
			c-6.42,0-8.97-5.84-8.97-12.55v-0.75c0-10.35,6.77-13.48,14.58-13.48h1.33v-6.07c0-3.64-0.52-5.78-3.47-5.78
			c-2.89,0-3.64,2.2-3.64,5.26v0.87h-7.46v-0.75c0-6.19,2.37-11.63,11.34-11.63c8.04,0,10.76,4.69,10.76,11.45L162.41,456.5
			L162.41,456.5z M155.06,444.53h-1.79c-4.34,0-7.11,1.79-7.11,7.52v0.69c0,3.47,1.16,6.02,4.16,6.02c3.41,0,4.74-2.43,4.74-8.62
			V444.53L155.06,444.53z"/>
		<path class="st0" d="M172.7,433.89c0-8.39,0-10.59-0.06-12.61h7.17c0.23,1.27,0.23,2.43,0.35,3.88c1.33-2.89,3.88-4.57,7.52-4.57
			c3.47,0,5.84,1.45,6.88,4.8c1.45-2.55,3.7-4.8,8.21-4.8c4.57,0,8.45,2.2,8.45,10.64v33.55h-7.64v-32.1c0-3.24-0.75-5.26-3.53-5.26
			c-3.47,0-4.34,2.89-4.34,7.35v29.96h-7.64V432.9c0-4.34-1.21-5.5-3.64-5.5c-3.47,0-4.22,2.95-4.22,7.46v29.9h-7.52L172.7,433.89
			L172.7,433.89z"/>
		<path class="st0" d="M221.29,405.78h7.64v9.08h-7.64V405.78z M221.29,421.28h7.52v43.5h-7.52V421.28L221.29,421.28z"/>
		<path class="st0" d="M260.74,450.66v0.58c0,7.69-1.97,14.23-11.63,14.23c-9.37,0-11.34-6.36-11.34-15.33v-15.73
			c0-7.17,2.55-13.82,11.74-13.82c9.89,0,11.16,7.17,11.16,12.78v1.68h-7.52v-1.68c0-3.64-0.52-6.36-3.82-6.36
			c-2.89,0-3.99,2.2-3.99,6.54v18.8c0,3.41,0.69,6.71,3.99,6.71c3.07,0,3.82-2.31,3.82-6.59v-1.79L260.74,450.66L260.74,450.66z"/>
		<path class="st0" d="M282.78,408.21h11.34c12.09,0,14.4,6.77,14.4,16.6v22.04c0,8.62-1.45,17.93-14.58,17.93h-11.16V408.21z
			 M290.35,458.24h3.07c6.19,0,7.35-3.7,7.35-10.24v-23.89c0-5.78-1.04-9.37-7.35-9.37h-3.07V458.24z"/>
		<path class="st0" d="M324.19,444.88v6.71c0,3.82,0.75,7.46,4.51,7.46c3.7,0,4.34-3.24,4.34-6.77v-0.23h7.29v0.23
			c0,4.74-1.04,13.19-11.51,13.19c-10.24,0-12.09-6.54-12.09-15.33v-15.1c0-6.19,2.14-14.46,12.09-14.46
			c8.91,0,11.68,6.25,11.68,14.46v9.83H324.19z M333.22,438.86v-4.92c0-3.99-0.75-6.94-4.4-6.94c-3.41,0-4.57,2.55-4.57,7v4.8h8.97
			V438.86z"/>
		<path class="st0" d="M354.21,421.28c1.33,8.04,4.4,25.97,5.5,35.05h0.06c0.75-8.56,4.34-26.49,5.78-35.05h7.52l-9.31,43.5h-8.56
			l-9.08-43.5H354.21z"/>
		<path class="st0" d="M386.08,444.88v6.71c0,3.82,0.75,7.46,4.51,7.46c3.7,0,4.34-3.24,4.34-6.77v-0.23h7.29v0.23
			c0,4.74-1.04,13.19-11.51,13.19c-10.24,0-12.09-6.54-12.09-15.33v-15.1c0-6.19,2.14-14.46,12.09-14.46
			c8.91,0,11.68,6.25,11.68,14.46v9.83H386.08z M395.11,438.86v-4.92c0-3.99-0.75-6.94-4.4-6.94c-3.41,0-4.57,2.55-4.57,7v4.8h8.97
			V438.86z"/>
		<path class="st0" d="M411.07,464.78v-59h7.52v59H411.07z"/>
		<path class="st0" d="M451.85,434.24v17.35c0,9.31-4.57,13.88-12.26,13.88c-7.87,0-12.09-4.57-12.09-13.82v-17.7
			c0-9.08,4.97-13.36,12.38-13.36C447.46,420.58,451.85,425.39,451.85,434.24z M435.08,433.77v18.1c0,4.05,1.27,6.77,4.69,6.77
			c3.07,0,4.51-2.2,4.51-6.88v-18.05c0-3.7-1.1-6.54-4.57-6.54C436.52,427.29,435.08,429.67,435.08,433.77z"/>
		<path class="st0" d="M460.76,433.77c0-5.9,0-9.83-0.06-12.55h7.17c0.17,0.87,0.35,2.72,0.35,4.4c1.16-2.78,3.53-5.09,7.87-5.09
			c6.07,0,8.97,4.16,8.97,12.73v18.1c0,9.83-3.47,14.06-9.72,14.06c-3.99,0-6.02-1.97-7.06-3.99v17.93h-7.52V433.77z M468.28,450.03
			c0,4.74,0.75,8.56,4.69,8.56c3.41,0,4.51-2.6,4.51-7.11v-17.7c0-4.51-1.5-6.36-4.16-6.36c-3.53,0-4.97,2.6-4.97,7.87v14.75H468.28
			z"/>
		<path class="st0" d="M494.02,433.89c0-8.39,0-10.59-0.06-12.61h7.17c0.23,1.27,0.23,2.43,0.35,3.88c1.33-2.89,3.88-4.57,7.52-4.57
			c3.47,0,5.84,1.45,6.88,4.8c1.45-2.55,3.7-4.8,8.21-4.8c4.57,0,8.45,2.2,8.45,10.64v33.55h-7.64v-32.1c0-3.24-0.75-5.26-3.53-5.26
			c-3.47,0-4.34,2.89-4.34,7.35v29.96h-7.64V432.9c0-4.34-1.21-5.5-3.64-5.5c-3.47,0-4.22,2.95-4.22,7.46v29.9h-7.52V433.89z"/>
		<path class="st0" d="M548.86,444.88v6.71c0,3.82,0.75,7.46,4.51,7.46c3.7,0,4.34-3.24,4.34-6.77v-0.23h7.35v0.23
			c0,4.74-1.04,13.19-11.51,13.19c-10.24,0-12.09-6.54-12.09-15.33v-15.1c0-6.19,2.14-14.46,12.09-14.46
			c8.91,0,11.68,6.25,11.68,14.46v9.83H548.86z M557.88,438.86v-4.92c0-3.99-0.75-6.94-4.4-6.94c-3.41,0-4.57,2.55-4.57,7v4.8h8.97
			V438.86z"/>
		<path class="st0" d="M573.79,434.64c0-8.79,0-11.34-0.06-13.36h7.17c0.17,1.04,0.35,2.6,0.35,4.16c1.27-2.78,3.64-4.8,7.98-4.8
			c5.09,0,8.79,2.95,8.79,11.11v33.09h-7.64v-31.58c0-4.05-1.33-5.78-4.05-5.78c-3.3,0-4.97,1.68-4.97,8.56v28.81h-7.52v-30.19
			H573.79z"/>
		<path class="st0" d="M604.15,421.28h4.8v-10.59h7.52v10.59h5.78v6.71h-5.78v27.19c0,2.14,0.35,3.99,3.07,3.99
			c0.75,0,1.97-0.06,2.43-0.23v5.78c-1.33,0.69-3.47,0.75-4.97,0.75c-4.97,0-8.04-1.68-8.04-8.91v-28.52h-4.8V421.28z"/>
		<path class="st0" d="M643.08,408.21h10.82c9.37,0,12.96,4.57,12.96,12.61v2.31c0,7.98-2.6,10.35-5.26,11.45
			c2.78,0.93,6.36,3.3,6.36,11.34v4.22c0,9.66-3.7,14.63-13.48,14.63h-11.45v-56.57H643.08z M653.26,431.57
			c4.97,0,6.42-1.68,6.42-7.69v-2.37c0-4.8-1.68-6.94-6.19-6.94h-3.07v17.01H653.26z M650.43,458.53h3.24
			c5.44,0,6.88-2.55,6.88-8.56v-3.88c0-5.78-1.79-8.21-7.29-8.21h-2.78v20.65H650.43z"/>
		<path class="st0" d="M698.55,456.5c0,2.78,0,6.77,0.17,8.27h-6.94c-0.17-0.93-0.52-2.72-0.52-3.3c-1.45,2.89-3.99,3.99-7.17,3.99
			c-6.42,0-8.97-5.84-8.97-12.55v-0.75c0-10.35,6.77-13.48,14.58-13.48h1.33v-6.07c0-3.64-0.52-5.78-3.47-5.78
			c-2.89,0-3.64,2.2-3.64,5.26v0.87h-7.46v-0.75c0-6.19,2.37-11.63,11.34-11.63c8.04,0,10.76,4.69,10.76,11.45L698.55,456.5
			L698.55,456.5z M691.15,444.53h-1.79c-4.34,0-7.11,1.79-7.11,7.52v0.69c0,3.47,1.16,6.02,4.16,6.02c3.41,0,4.74-2.43,4.74-8.62
			L691.15,444.53L691.15,444.53z"/>
		<path class="st0" d="M708.79,434.64c0-8.79,0-11.34-0.06-13.36h7.17c0.17,1.04,0.35,2.6,0.35,4.16c1.27-2.78,3.64-4.8,7.98-4.8
			c5.09,0,8.79,2.95,8.79,11.11v33.09h-7.64v-31.58c0-4.05-1.33-5.78-4.05-5.78c-3.3,0-4.97,1.68-4.97,8.56v28.81h-7.52v-30.19
			H708.79z"/>
		<path class="st0" d="M750.73,440.66h0.06c2.02-4.8,6.19-14,8.56-19.38h7.98c-2.89,5.9-5.5,10.99-8.16,16.02l9.08,27.53h-8.27
			l-5.9-20.13c-0.87,1.62-2.55,4.97-3.3,6.42v13.71h-7.52v-59h7.52v34.82H750.73z"/>
	</g>
	<g>
		<path class="st0" d="M88.71,336.54c0.98,0,1.85-0.35,2.55-0.98s1.04-1.5,1.04-2.43c0-0.98-0.35-1.79-1.04-2.43
			c-0.69-0.64-1.56-0.98-2.55-0.98s-1.85,0.35-2.55,0.98c-0.69,0.64-1.04,1.45-1.04,2.43s0.35,1.79,1.04,2.43
			S87.67,336.54,88.71,336.54z"/>
		<path class="st0" d="M101.32,336.54c1.04,0,1.85-0.35,2.6-0.98c0.69-0.64,1.04-1.45,1.04-2.43s-0.35-1.79-1.04-2.49
			c-0.69-0.64-1.56-0.98-2.6-0.98c-1.04,0-1.85,0.35-2.55,0.98c-0.69,0.64-1.04,1.45-1.04,2.43s0.35,1.79,1.04,2.43
			C99.42,336.19,100.28,336.54,101.32,336.54z"/>
		<path class="st0" d="M120.59,388.6c-0.98,0-1.85,0.35-2.55,1.04c-0.69,0.69-1.04,1.5-1.04,2.49c0,0.98,0.35,1.79,1.04,2.43
			c0.69,0.64,1.56,0.93,2.55,0.93c0.98,0,1.85-0.29,2.55-0.93c0.69-0.64,1.04-1.45,1.04-2.43s-0.35-1.79-1.04-2.49
			C122.44,388.94,121.57,388.6,120.59,388.6z"/>
		<path class="st0" d="M133.2,388.6c-1.04,0-1.85,0.35-2.55,1.04c-0.69,0.69-1.04,1.5-1.04,2.49c0,0.98,0.35,1.79,1.04,2.43
			c0.69,0.64,1.56,0.93,2.55,0.93c1.04,0,1.85-0.29,2.6-0.93c0.69-0.64,1.04-1.45,1.04-2.43s-0.35-1.85-1.04-2.49
			C135.1,388.89,134.24,388.6,133.2,388.6z"/>
		<path class="st0" d="M202.66,339.08c1.04,0,1.91-0.35,2.66-0.98c0.69-0.64,1.04-1.5,1.04-2.55s-0.35-1.85-1.04-2.55
			c-0.69-0.69-1.62-1.04-2.66-1.04c-1.04,0-1.91,0.35-2.66,1.04c-0.69,0.69-1.04,1.5-1.04,2.55s0.35,1.85,1.04,2.55
			C200.7,338.74,201.57,339.08,202.66,339.08z"/>
		<path class="st0" d="M234.65,339.08c1.04,0,1.91-0.35,2.6-0.98c0.69-0.64,1.04-1.45,1.04-2.43s-0.35-1.79-1.04-2.49
			c-0.69-0.64-1.56-0.98-2.6-0.98c-1.04,0-1.85,0.35-2.55,0.98c-0.69,0.64-1.04,1.45-1.04,2.43s0.35,1.79,1.04,2.43
			C232.8,338.74,233.67,339.08,234.65,339.08z"/>
		<path class="st0" d="M222.04,339.08c0.98,0,1.85-0.35,2.55-0.98c0.69-0.64,1.04-1.5,1.04-2.43c0-0.98-0.35-1.79-1.04-2.43
			c-0.69-0.64-1.56-0.98-2.55-0.98s-1.85,0.35-2.55,0.98c-0.69,0.64-1.04,1.45-1.04,2.43s0.35,1.79,1.04,2.43
			C220.19,338.74,221.06,339.08,222.04,339.08z"/>
		<path class="st0" d="M276.76,376.57h-8.56h-1.33h-8.5v-47.72h-5.21v47.72h-8.56h-1.27h-11.97v-30.19h-5.21v30.19h-12.49h-1.33
			h-6.83v-30.19h-5.21v30.19h-6.42h-1.33h-8.1c1.1-2.37,1.62-4.97,1.62-7.69c0-5.38-1.85-9.89-5.44-13.54
			c-3.64-3.64-8.1-5.5-13.42-5.5s-9.78,1.85-13.36,5.55c-3.59,3.7-5.38,8.21-5.38,13.54c0,2.6,0.52,5.21,1.56,7.69h-6.83h-1.27
			h-11.97v-30.19h-5.21v30.19h-12.61h-1.21h-6.94v-33.43h-5.21v3.24h-3.01c-6.42,0-11.63,1.68-15.62,5.03
			c-3.93,3.24-5.9,7.52-5.9,12.67c0,5.84,2.02,10.24,6.13,13.19c4.11,3.01,9.2,4.45,15.39,4.45h15.15h1.21h29.79h1.27h10.18
			c3.64,3.93,8.27,5.84,13.82,5.84c5.55,0,10.18-1.97,13.88-5.84h11.45h1.33h18.45h1.33h29.67h1.27h22.27h1.33h13.77v-52.93h-5.21
			V376.57L276.76,376.57z M98.78,376.57h-5.15c-4.05,0-7.4-1.1-10.12-3.35c-2.72-2.26-4.05-5.21-4.05-8.97
			c0-3.76,1.45-6.77,4.28-9.14c2.83-2.37,6.13-3.53,9.89-3.53h5.15V376.57z M176.92,378.53c-2.66,2.6-5.9,3.88-9.78,3.88
			c-3.82,0-7.06-1.33-9.6-3.99c-2.55-2.66-3.82-5.9-3.82-9.66s1.27-7,3.82-9.66c2.55-2.66,5.78-3.99,9.66-3.99
			c3.93,0,7.17,1.33,9.78,3.93c2.6,2.6,3.93,5.9,3.93,9.83C180.92,372.69,179.59,375.99,176.92,378.53z"/>
		<path class="st0" d="M327.03,365.23c1.04,0,1.91-0.35,2.66-0.98c0.69-0.64,1.04-1.5,1.04-2.55s-0.35-1.85-1.04-2.55
			c-0.69-0.69-1.62-0.98-2.66-0.98c-1.04,0-1.91,0.35-2.66,0.98c-0.69,0.69-1.04,1.5-1.04,2.55s0.35,1.85,1.04,2.55
			C325.06,364.88,325.93,365.23,327.03,365.23z"/>
		<path class="st0" d="M327.03,377.61c1.04,0,1.91-0.35,2.66-0.98c0.69-0.64,1.04-1.5,1.04-2.55s-0.35-1.85-1.04-2.55
			c-0.69-0.69-1.62-0.98-2.66-0.98c-1.04,0-1.91,0.35-2.66,0.98c-0.69,0.69-1.04,1.5-1.04,2.55s0.35,1.85,1.04,2.55
			S325.93,377.61,327.03,377.61z"/>
		<path class="st0" d="M397.42,349.78c-5.32,0-9.78,1.85-13.36,5.55c-3.59,3.7-5.38,8.21-5.38,13.54c0,2.6,0.52,5.21,1.56,7.69
			h-6.77h-1.33h-6.83v-30.19h-11.63c-4.28,0-7.69,1.04-10.18,3.07c-3.07,2.6-4.57,6.36-4.57,11.22v24.06h-15.21
			c-3.82,0-7.64-0.98-11.4-2.95l-2.37,4.63c4.45,2.37,9.6,3.53,15.44,3.53h18.74v-30.14c0-2.66,0.87-4.74,2.66-6.13
			c1.79-1.39,4.11-2.08,6.94-2.08h6.36v30.19h12.03h1.33h10.12c3.64,3.93,8.16,5.84,13.59,5.84c5.38,0,9.95-1.79,13.59-5.38
			c3.7-3.59,5.55-8.04,5.55-13.42c0-5.38-1.85-9.89-5.44-13.59C407.2,351.64,402.74,349.78,397.42,349.78z M407.08,378.53
			c-2.66,2.6-5.9,3.88-9.78,3.88s-7.06-1.33-9.6-3.99c-2.55-2.66-3.82-5.9-3.82-9.66s1.27-7,3.82-9.66
			c2.55-2.66,5.78-3.99,9.66-3.99c3.93,0,7.17,1.33,9.78,3.93s3.93,5.9,3.93,9.83C411.07,372.69,409.74,375.99,407.08,378.53z"/>
		<rect x="433.23" y="336.31" class="st0" width="5.21" height="36.73"/>
		<path class="st0" d="M532.43,367.25c0,3.07-0.81,5.5-2.49,7.23c-1.68,1.79-4.05,2.66-7.11,2.66s-5.61-0.87-7.52-2.6
			s-2.95-3.93-3.01-6.54v-18.45h-5.21v18.16c0,3.01-0.87,5.21-2.55,6.65s-3.76,2.2-6.3,2.2h-10.12v-26.95h-5.21v26.95h-13.71
			c-3.07,0-5.5-0.46-7.29-1.39c-1.79-0.93-3.24-2.37-4.28-4.28c0.58-1.85,0.87-3.7,0.87-5.55v-36.09h4.8v-5.21h-10.06v41.3
			c0,3.82-1.1,6.65-3.41,8.5s-5.32,2.72-9.14,2.72H422.7l0.64,5.21h15.39c8.5,0,14.23-2.31,17.18-7c1.04,2.08,2.55,3.76,4.51,5.03
			c1.74,1.16,4.22,1.74,7.4,1.85v0.06h30.37c5.03,0,8.85-1.97,11.57-6.02c2.66,4.4,7,6.65,12.9,6.65c10.01,0,14.98-5.32,14.98-15.96
			v-23.83h-5.21L532.43,367.25L532.43,367.25z"/>
		<rect x="555.62" y="336.31" class="st0" width="5.21" height="36.73"/>
		<path class="st0" d="M551.75,390.85c0,5.26,2.43,7.87,7.35,7.87h2.66v-2.95h-2.2c-2.72,0-4.05-1.21-4.05-3.64h8.33v-3.47h-12.09
			V390.85z"/>
		<path class="st0" d="M575.58,365.34c0,3.82-1.1,6.65-3.41,8.5s-5.32,2.72-9.14,2.72H545.1l0.64,5.21h15.39
			c6.65,0,11.63-1.45,14.87-4.28c3.24-2.89,4.86-6.94,4.86-12.15v-36.09h4.8v-5.21h-10.06L575.58,365.34L575.58,365.34z"/>
		<rect x="598.83" y="328.85" class="st0" width="5.21" height="52.93"/>
		<path class="st0" d="M668.76,357.25h-9.66v-2.6c0-1.21,0.29-2.14,0.87-2.72c0.58-0.64,1.5-0.93,2.89-0.93h3.82v-2.95h-3.93
			c-2.49,0-4.34,0.64-5.55,1.91c-1.21,1.27-1.85,3.24-1.85,6.02v4.74h13.42V357.25z"/>
		<path class="st0" d="M701.73,339.08c1.04,0,1.91-0.35,2.66-0.98c0.69-0.64,1.04-1.5,1.04-2.55s-0.35-1.85-1.04-2.55
			c-0.69-0.69-1.62-1.04-2.66-1.04c-1.04,0-1.91,0.35-2.66,1.04c-0.69,0.69-1.04,1.5-1.04,2.55s0.35,1.85,1.04,2.55
			C699.77,338.74,700.69,339.08,701.73,339.08z"/>
		<path class="st0" d="M721.75,388.42c-1.04,0-1.91,0.35-2.66,0.98c-0.69,0.69-1.1,1.5-1.1,2.55s0.35,1.85,1.04,2.49
			c0.69,0.64,1.62,0.98,2.66,0.98c1.04,0,1.91-0.35,2.66-0.98c0.69-0.64,1.04-1.5,1.04-2.49s-0.35-1.85-1.04-2.49
			C723.66,388.77,722.79,388.42,721.75,388.42z"/>
		<path class="st0" d="M741.01,376.57h-8.5h-1.33h-6.83v-30.19h-5.21v30.19h-6.36h-1.33h-6.83v-30.19h-5.21v30.19h-4.22h-3.47h-8.04
			v-47.72h-5.21v47.72h-21.23c-4.4,0-7.75-0.93-10.01-2.72c-2.26-1.85-3.41-4.8-3.41-8.91V352.5h-5.21v13.19
			c0,2.14,0.4,4.28,1.16,6.48c0.75,2.2,1.97,4.05,3.64,5.5c1.62,1.45,3.59,2.49,5.84,3.18c2.26,0.64,5.21,0.98,8.91,0.98h33.61h3.47
			h16.25h1.33h18.39h1.33h13.71V328.9h-5.21v47.66H741.01z"/>
		<rect x="761.2" y="328.85" class="st0" width="5.21" height="52.93"/>
	</g>
</g>
<g>
	
		<linearGradient id="SVGID_1_" gradientUnits="userSpaceOnUse" x1="527.5981" y1="400.4551" x2="677.6931" y2="400.4551" gradientTransform="matrix(1 0 0 -1 3.051759e-05 596.7244)">
		<stop  offset="0" style="stop-color:#44AC38"/>
		<stop  offset="0.487" style="stop-color:#24716C"/>
		<stop  offset="0.8389" style="stop-color:#234773"/>
		<stop  offset="1" style="stop-color:#233770"/>
	</linearGradient>
	<path class="st1" d="M597.73,196.38c0,2.6-0.87,4.92-2.26,6.88l11.16,16.37l25.91,0.17l5.5,0.06l1.85-3.99l9.14-19.72l-16.31-22.27
		l-28.86-1.21L594.2,188C596.34,190.14,597.73,193.09,597.73,196.38z"/>
	
		<linearGradient id="SVGID_2_" gradientUnits="userSpaceOnUse" x1="527.5981" y1="422.1173" x2="677.6931" y2="422.1173" gradientTransform="matrix(1 0 0 -1 3.051759e-05 596.7244)">
		<stop  offset="0" style="stop-color:#44AC38"/>
		<stop  offset="0.487" style="stop-color:#24716C"/>
		<stop  offset="0.8389" style="stop-color:#234773"/>
		<stop  offset="1" style="stop-color:#233770"/>
	</linearGradient>
	<path class="st2" d="M585.99,184.64c1.45,0,2.78,0.29,4.05,0.75l9.49-14.98l-14.06-16.14l-4.45,0.35l-21.98,1.62l-15.1,19.38
		l11.97,19.32l11.16-0.87l7.58-0.58C575.98,188.4,580.5,184.64,585.99,184.64z"/>
	
		<linearGradient id="SVGID_3_" gradientUnits="userSpaceOnUse" x1="527.5981" y1="371.9964" x2="677.6931" y2="371.9964" gradientTransform="matrix(1 0 0 -1 3.051759e-05 596.7244)">
		<stop  offset="0" style="stop-color:#44AC38"/>
		<stop  offset="0.487" style="stop-color:#24716C"/>
		<stop  offset="0.8389" style="stop-color:#234773"/>
		<stop  offset="1" style="stop-color:#233770"/>
	</linearGradient>
	<path class="st3" d="M567.83,251.05l19.32-0.58l1.16-2.14l14.17-26.09l-10.64-15.68c-1.74,0.98-3.7,1.62-5.84,1.62
		c-5.78,0-10.59-4.22-11.51-9.78l-6.94,0.52l-11.45,0.87l-15.44,25.86l7.06,12.49c1.33-0.35,2.72-0.58,4.16-0.58
		C559.85,237.63,566.5,243.41,567.83,251.05z"/>
	
		<linearGradient id="SVGID_4_" gradientUnits="userSpaceOnUse" x1="527.5981" y1="313.4593" x2="677.6931" y2="313.4593" gradientTransform="matrix(1 0 0 -1 3.051759e-05 596.7244)">
		<stop  offset="0" style="stop-color:#44AC38"/>
		<stop  offset="0.487" style="stop-color:#24716C"/>
		<stop  offset="0.8389" style="stop-color:#234773"/>
		<stop  offset="1" style="stop-color:#233770"/>
	</linearGradient>
	<path class="st4" d="M568,255.85c-0.98,8.04-7.81,14.29-16.14,14.29c-1.1,0-2.14-0.12-3.18-0.29l-8.39,17.06h-0.06l14.58,24.29
		h35.46l15.27-26.32l-18.28-29.56L568,255.85z"/>
	
		<linearGradient id="SVGID_5_" gradientUnits="userSpaceOnUse" x1="527.5981" y1="344.4342" x2="677.6931" y2="344.4342" gradientTransform="matrix(1 0 0 -1 3.051759e-05 596.7244)">
		<stop  offset="0" style="stop-color:#44AC38"/>
		<stop  offset="0.487" style="stop-color:#24716C"/>
		<stop  offset="0.8389" style="stop-color:#234773"/>
		<stop  offset="1" style="stop-color:#233770"/>
	</linearGradient>
	<polygon class="st5" points="638.16,224.73 635.1,224.67 606.76,224.5 591.89,251.91 591.43,252.72 608.32,280.08 640.25,279.16 
		653.9,250.93 646.03,237.8 	"/>
	
		<linearGradient id="SVGID_6_" gradientUnits="userSpaceOnUse" x1="527.5981" y1="419.8904" x2="677.6931" y2="419.8904" gradientTransform="matrix(1 0 0 -1 3.051759e-05 596.7244)">
		<stop  offset="0" style="stop-color:#44AC38"/>
		<stop  offset="0.487" style="stop-color:#24716C"/>
		<stop  offset="0.8389" style="stop-color:#234773"/>
		<stop  offset="1" style="stop-color:#233770"/>
	</linearGradient>
	<polygon class="st6" points="650.08,157.46 645.4,156.53 640.48,165.09 636.83,171.34 653.15,193.61 665.18,195.34 678.02,197.14 
		682.65,182.97 683.51,180.19 667.49,160.81 	"/>
	
		<linearGradient id="SVGID_7_" gradientUnits="userSpaceOnUse" x1="527.5981" y1="373.2979" x2="677.6931" y2="373.2979" gradientTransform="matrix(1 0 0 -1 3.051759e-05 596.7244)">
		<stop  offset="0" style="stop-color:#44AC38"/>
		<stop  offset="0.487" style="stop-color:#24716C"/>
		<stop  offset="0.8389" style="stop-color:#234773"/>
		<stop  offset="1" style="stop-color:#233770"/>
	</linearGradient>
	<path class="st7" d="M683.4,224.5c0-3.12,1.56-5.9,3.99-7.52l-8.85-14.4l-0.29-0.52l-12.96-1.85l-12.09-1.74l-10.18,21.92
		l-0.75,1.68l7.87,13.13l7.87,13.13l25.68,0.06l0.81-2.2l4.97-13.25C686,231.78,683.4,228.43,683.4,224.5z"/>
	
		<linearGradient id="SVGID_8_" gradientUnits="userSpaceOnUse" x1="527.5981" y1="393.1958" x2="677.6931" y2="393.1958" gradientTransform="matrix(1 0 0 -1 3.051759e-05 596.7244)">
		<stop  offset="0" style="stop-color:#44AC38"/>
		<stop  offset="0.487" style="stop-color:#24716C"/>
		<stop  offset="0.8389" style="stop-color:#234773"/>
		<stop  offset="1" style="stop-color:#233770"/>
	</linearGradient>
	<path class="st8" d="M701.39,223.17l5.96,0.64l5.21,0.58l3.01-16.54l-10.59-17.7l-1.91-3.18l-2.2-0.64l-13.01-3.64l-0.87,2.72
		l-4.57,14.11l0.4,0.64l9.43,15.33c0.12,0,0.17,0,0.29,0C696.99,215.42,700.69,218.77,701.39,223.17z"/>
	
		<linearGradient id="SVGID_9_" gradientUnits="userSpaceOnUse" x1="527.5981" y1="345.3018" x2="677.6931" y2="345.3018" gradientTransform="matrix(1 0 0 -1 3.051759e-05 596.7244)">
		<stop  offset="0" style="stop-color:#44AC38"/>
		<stop  offset="0.487" style="stop-color:#24716C"/>
		<stop  offset="0.8389" style="stop-color:#234773"/>
		<stop  offset="1" style="stop-color:#233770"/>
	</linearGradient>
	<path class="st9" d="M712.78,229.3l-5.44-0.58l-6.54-0.69c-1.1,2.6-3.41,4.57-6.19,5.26l-4.34,11.57l-2.26,5.96l11.51,24
		l16.54-1.68l6.02-21.52L712.78,229.3z"/>
	
		<linearGradient id="SVGID_10_" gradientUnits="userSpaceOnUse" x1="527.5981" y1="366.7905" x2="677.6931" y2="366.7905" gradientTransform="matrix(1 0 0 -1 3.051759e-05 596.7244)">
		<stop  offset="0" style="stop-color:#44AC38"/>
		<stop  offset="0.487" style="stop-color:#24716C"/>
		<stop  offset="0.8389" style="stop-color:#234773"/>
		<stop  offset="1" style="stop-color:#233770"/>
	</linearGradient>
	<polygon class="st10" points="719.9,210.79 717,226.75 726.32,249.02 733.78,249.08 735.23,232.71 727.76,214.2 723.48,212.35 	"/>
	
		<linearGradient id="SVGID_11_" gradientUnits="userSpaceOnUse" x1="527.5981" y1="380.7885" x2="677.6931" y2="380.7885" gradientTransform="matrix(1 0 0 -1 3.051759e-05 596.7244)">
		<stop  offset="0" style="stop-color:#44AC38"/>
		<stop  offset="0.487" style="stop-color:#24716C"/>
		<stop  offset="0.8389" style="stop-color:#234773"/>
		<stop  offset="1" style="stop-color:#233770"/>
	</linearGradient>
	<polygon class="st11" points="738.81,228.31 737.71,222.36 734.07,210.9 731.7,203.96 731.29,203.56 731.99,211.77 	"/>
	
		<linearGradient id="SVGID_12_" gradientUnits="userSpaceOnUse" x1="527.5981" y1="344.2318" x2="677.6931" y2="344.2318" gradientTransform="matrix(1 0 0 -1 3.051759e-05 596.7244)">
		<stop  offset="0" style="stop-color:#44AC38"/>
		<stop  offset="0.487" style="stop-color:#24716C"/>
		<stop  offset="0.8389" style="stop-color:#234773"/>
		<stop  offset="1" style="stop-color:#233770"/>
	</linearGradient>
	<polygon class="st12" points="740.32,236.76 740.08,236.64 739.79,236.47 738.46,251.39 742.11,268.52 742.63,268.34 
		743.67,253.36 	"/>
	
		<linearGradient id="SVGID_13_" gradientUnits="userSpaceOnUse" x1="527.5981" y1="322.2804" x2="677.6931" y2="322.2804" gradientTransform="matrix(1 0 0 -1 3.051759e-05 596.7244)">
		<stop  offset="0" style="stop-color:#44AC38"/>
		<stop  offset="0.487" style="stop-color:#24716C"/>
		<stop  offset="0.8389" style="stop-color:#234773"/>
		<stop  offset="1" style="stop-color:#233770"/>
	</linearGradient>
	<polygon class="st13" points="726.61,253.88 726.49,253.88 720.59,274.99 733.2,295.01 736.15,289.63 737.77,271.7 734.01,253.94 	
		"/>
	
		<linearGradient id="SVGID_14_" gradientUnits="userSpaceOnUse" x1="527.5981" y1="430.5045" x2="677.6931" y2="430.5045" gradientTransform="matrix(1 0 0 -1 3.051759e-05 596.7244)">
		<stop  offset="0" style="stop-color:#44AC38"/>
		<stop  offset="0.487" style="stop-color:#24716C"/>
		<stop  offset="0.8389" style="stop-color:#234773"/>
		<stop  offset="1" style="stop-color:#233770"/>
	</linearGradient>
	<polygon class="st14" points="671.6,158.15 687.62,177.59 702.54,181.75 703.64,173.25 694.39,162.43 689.41,156.59 674.78,150.69 
			"/>
	
		<linearGradient id="SVGID_15_" gradientUnits="userSpaceOnUse" x1="527.5981" y1="433.2521" x2="677.6931" y2="433.2521" gradientTransform="matrix(1 0 0 -1 3.051759e-05 596.7244)">
		<stop  offset="0" style="stop-color:#44AC38"/>
		<stop  offset="0.487" style="stop-color:#24716C"/>
		<stop  offset="0.8389" style="stop-color:#234773"/>
		<stop  offset="1" style="stop-color:#233770"/>
	</linearGradient>
	<polygon class="st15" points="707.75,170.64 713.24,173.94 713.01,173.02 696.93,155.37 693.35,153 693.29,153.7 698.61,159.89 	
		"/>
	
		<linearGradient id="SVGID_16_" gradientUnits="userSpaceOnUse" x1="527.5981" y1="404.1571" x2="677.6931" y2="404.1571" gradientTransform="matrix(1 0 0 -1 3.051759e-05 596.7244)">
		<stop  offset="0" style="stop-color:#44AC38"/>
		<stop  offset="0.487" style="stop-color:#24716C"/>
		<stop  offset="0.8389" style="stop-color:#234773"/>
		<stop  offset="1" style="stop-color:#233770"/>
	</linearGradient>
	<polygon class="st16" points="708.21,176.6 707.4,184.82 719.72,205.47 722.96,206.85 726.84,208.53 726.03,199.16 725.97,198.41 
		719.95,188.58 715.33,180.88 711.39,178.51 	"/>
	
		<linearGradient id="SVGID_17_" gradientUnits="userSpaceOnUse" x1="527.5981" y1="442.9697" x2="677.6931" y2="442.9697" gradientTransform="matrix(1 0 0 -1 3.051759e-05 596.7244)">
		<stop  offset="0" style="stop-color:#44AC38"/>
		<stop  offset="0.487" style="stop-color:#24716C"/>
		<stop  offset="0.8389" style="stop-color:#234773"/>
		<stop  offset="1" style="stop-color:#233770"/>
	</linearGradient>
	<path class="st17" d="M621.22,139.93l-19.32-1.5h-0.23l-11.92,13.42l13.94,16.02l28.92,1.21l3.64-6.25l4.86-8.45l-7.92-7.4
		l-3.18-2.95c-0.75,0.29-1.5,0.46-2.37,0.46C624.63,144.38,622.14,142.53,621.22,139.93z"/>
	
		<linearGradient id="SVGID_18_" gradientUnits="userSpaceOnUse" x1="527.5981" y1="453.2079" x2="677.6931" y2="453.2079" gradientTransform="matrix(1 0 0 -1 3.051759e-05 596.7244)">
		<stop  offset="0" style="stop-color:#44AC38"/>
		<stop  offset="0.487" style="stop-color:#24716C"/>
		<stop  offset="0.8389" style="stop-color:#234773"/>
		<stop  offset="1" style="stop-color:#233770"/>
	</linearGradient>
	<path class="st18" d="M633.6,140.74l3.93,3.64l7.81,7.23l22.04,4.22l3.24-7.58l-14.46-12.44l-19.78-4.63l-0.17,0.23l-2.66,3.01
		c0.52,0.98,0.87,2.02,0.87,3.24C634.35,138.72,634.06,139.76,633.6,140.74z"/>
	
		<linearGradient id="SVGID_19_" gradientUnits="userSpaceOnUse" x1="527.5981" y1="455.5795" x2="677.6931" y2="455.5795" gradientTransform="matrix(1 0 0 -1 3.051759e-05 596.7244)">
		<stop  offset="0" style="stop-color:#44AC38"/>
		<stop  offset="0.487" style="stop-color:#24716C"/>
		<stop  offset="0.8389" style="stop-color:#234773"/>
		<stop  offset="1" style="stop-color:#233770"/>
	</linearGradient>
	<polygon class="st19" points="688.55,150.98 688.55,149.65 675.65,138.89 662.75,131.31 660.78,133.39 674.72,145.43 	"/>
	
		<linearGradient id="SVGID_20_" gradientUnits="userSpaceOnUse" x1="527.5981" y1="468.652" x2="677.6931" y2="468.652" gradientTransform="matrix(1 0 0 -1 3.051759e-05 596.7244)">
		<stop  offset="0" style="stop-color:#44AC38"/>
		<stop  offset="0.487" style="stop-color:#24716C"/>
		<stop  offset="0.8389" style="stop-color:#234773"/>
		<stop  offset="1" style="stop-color:#233770"/>
	</linearGradient>
	<path class="st20" d="M598.43,121.02l-7.35,4.8l10.41,7.75l19.78,1.56c0.98-2.49,3.41-4.28,6.3-4.28c0.81,0,1.56,0.17,2.26,0.4
		l1.45-1.56l0.52-0.58l-10.93-6.77l-22.1-1.33H598.43z"/>
	
		<linearGradient id="SVGID_21_" gradientUnits="userSpaceOnUse" x1="527.5981" y1="480.3941" x2="677.6931" y2="480.3941" gradientTransform="matrix(1 0 0 -1 3.051759e-05 596.7244)">
		<stop  offset="0" style="stop-color:#44AC38"/>
		<stop  offset="0.487" style="stop-color:#24716C"/>
		<stop  offset="0.8389" style="stop-color:#234773"/>
		<stop  offset="1" style="stop-color:#233770"/>
	</linearGradient>
	<polygon class="st21" points="599,116.16 619.08,117.14 616.7,116.74 596.98,115.52 598.54,116.16 	"/>
	
		<linearGradient id="SVGID_22_" gradientUnits="userSpaceOnUse" x1="527.5981" y1="456.9388" x2="677.6931" y2="456.9388" gradientTransform="matrix(1 0 0 -1 3.051759e-05 596.7244)">
		<stop  offset="0" style="stop-color:#44AC38"/>
		<stop  offset="0.487" style="stop-color:#24716C"/>
		<stop  offset="0.8389" style="stop-color:#234773"/>
		<stop  offset="1" style="stop-color:#233770"/>
	</linearGradient>
	<polygon class="st22" points="586.16,128.19 563.26,130.56 550.71,141.78 552.67,144.15 558.86,151.38 580.73,149.76 
		585.35,149.42 597.04,136.23 596.46,135.77 	"/>
	
		<linearGradient id="SVGID_23_" gradientUnits="userSpaceOnUse" x1="527.5981" y1="475.1304" x2="677.6931" y2="475.1304" gradientTransform="matrix(1 0 0 -1 3.051759e-05 596.7244)">
		<stop  offset="0" style="stop-color:#44AC38"/>
		<stop  offset="0.487" style="stop-color:#24716C"/>
		<stop  offset="0.8389" style="stop-color:#234773"/>
		<stop  offset="1" style="stop-color:#233770"/>
	</linearGradient>
	<polygon class="st23" points="562.74,125.76 585.99,123.33 588.36,121.77 592.58,118.99 588.77,117.43 566.61,119.51 
		559.21,123.79 562.33,125.53 	"/>
	
		<linearGradient id="SVGID_24_" gradientUnits="userSpaceOnUse" x1="527.5981" y1="471.8333" x2="677.6931" y2="471.8333" gradientTransform="matrix(1 0 0 -1 3.051759e-05 596.7244)">
		<stop  offset="0" style="stop-color:#44AC38"/>
		<stop  offset="0.487" style="stop-color:#24716C"/>
		<stop  offset="0.8389" style="stop-color:#234773"/>
		<stop  offset="1" style="stop-color:#233770"/>
	</linearGradient>
	<polygon class="st24" points="636.49,126.22 656.5,130.91 657.83,129.46 658.41,128.88 656.04,127.55 628.68,118.88 626.48,120.09 
		627.81,120.9 	"/>
	
		<linearGradient id="SVGID_25_" gradientUnits="userSpaceOnUse" x1="527.5981" y1="435.2766" x2="677.6931" y2="435.2766" gradientTransform="matrix(1 0 0 -1 3.051759e-05 596.7244)">
		<stop  offset="0" style="stop-color:#44AC38"/>
		<stop  offset="0.487" style="stop-color:#24716C"/>
		<stop  offset="0.8389" style="stop-color:#234773"/>
		<stop  offset="1" style="stop-color:#233770"/>
	</linearGradient>
	<path class="st25" d="M512.7,170.64l3.3,7.87l17.58-3.88l6.02-1.33l15.1-19.38l-6.88-8.1l-1.21-1.45l-21.58,5.21l-11.63,13.25
		c0.52,1.04,0.87,2.14,0.87,3.41C514.21,167.87,513.63,169.43,512.7,170.64z"/>
	
		<linearGradient id="SVGID_26_" gradientUnits="userSpaceOnUse" x1="527.5981" y1="440.1065" x2="677.6931" y2="440.1065" gradientTransform="matrix(1 0 0 -1 3.051759e-05 596.7244)">
		<stop  offset="0" style="stop-color:#44AC38"/>
		<stop  offset="0.487" style="stop-color:#24716C"/>
		<stop  offset="0.8389" style="stop-color:#234773"/>
		<stop  offset="1" style="stop-color:#233770"/>
	</linearGradient>
	<path class="st26" d="M506.98,158.96c0.98,0,1.85,0.17,2.72,0.52l10.99-12.38l-1.85-3.07l-0.29-0.46l-13.19,6.07l-11.34,11.68
		l-3.01,3.24l0.87,5.09l7.81-3.35l0,0C499.69,162.2,502.93,158.96,506.98,158.96z"/>
	
		<linearGradient id="SVGID_27_" gradientUnits="userSpaceOnUse" x1="527.5981" y1="458.2692" x2="677.6931" y2="458.2692" gradientTransform="matrix(1 0 0 -1 3.051759e-05 596.7244)">
		<stop  offset="0" style="stop-color:#44AC38"/>
		<stop  offset="0.487" style="stop-color:#24716C"/>
		<stop  offset="0.8389" style="stop-color:#234773"/>
		<stop  offset="1" style="stop-color:#233770"/>
	</linearGradient>
	<polygon class="st27" points="518.2,138.43 518.66,138.08 519.76,137.21 515.48,139.7 515.77,139.53 	"/>
	
		<linearGradient id="SVGID_28_" gradientUnits="userSpaceOnUse" x1="527.5981" y1="461.2191" x2="677.6931" y2="461.2191" gradientTransform="matrix(1 0 0 -1 3.051759e-05 596.7244)">
		<stop  offset="0" style="stop-color:#44AC38"/>
		<stop  offset="0.487" style="stop-color:#24716C"/>
		<stop  offset="0.8389" style="stop-color:#234773"/>
		<stop  offset="1" style="stop-color:#233770"/>
	</linearGradient>
	<polygon class="st28" points="545.96,139.12 558.05,128.65 557.76,128.54 554,126.39 535.03,131.37 526.35,138.19 522.65,141.09 
		524.79,144.62 	"/>
	
		<linearGradient id="SVGID_29_" gradientUnits="userSpaceOnUse" x1="527.5981" y1="394.4106" x2="677.6931" y2="394.4106" gradientTransform="matrix(1 0 0 -1 3.051759e-05 596.7244)">
		<stop  offset="0" style="stop-color:#44AC38"/>
		<stop  offset="0.487" style="stop-color:#24716C"/>
		<stop  offset="0.8389" style="stop-color:#234773"/>
		<stop  offset="1" style="stop-color:#233770"/>
	</linearGradient>
	<polygon class="st29" points="516.06,183.49 509.98,193.15 501.89,206.16 510.74,226.41 535.38,223.51 536.36,223.4 551.52,197.48 
		539.77,178.22 534.34,179.44 	"/>
	
		<linearGradient id="SVGID_30_" gradientUnits="userSpaceOnUse" x1="527.5981" y1="407.7433" x2="677.6931" y2="407.7433" gradientTransform="matrix(1 0 0 -1 3.051759e-05 596.7244)">
		<stop  offset="0" style="stop-color:#44AC38"/>
		<stop  offset="0.487" style="stop-color:#24716C"/>
		<stop  offset="0.8389" style="stop-color:#234773"/>
		<stop  offset="1" style="stop-color:#233770"/>
	</linearGradient>
	<path class="st30" d="M485.4,206.97l7.98-2.02l4.16-1.04l8.5-13.59l5.73-9.14l-3.24-7.81c-0.52,0.12-1.04,0.17-1.62,0.17
		c-2.2,0-4.16-0.98-5.5-2.55l-10.24,4.63l-9.72,15.1l-2.72,4.16l2.02,9.43C482.57,204.71,484.19,205.7,485.4,206.97z"/>
	
		<linearGradient id="SVGID_31_" gradientUnits="userSpaceOnUse" x1="527.5981" y1="379.7473" x2="677.6931" y2="379.7473" gradientTransform="matrix(1 0 0 -1 3.051759e-05 596.7244)">
		<stop  offset="0" style="stop-color:#44AC38"/>
		<stop  offset="0.487" style="stop-color:#24716C"/>
		<stop  offset="0.8389" style="stop-color:#234773"/>
		<stop  offset="1" style="stop-color:#233770"/>
	</linearGradient>
	<path class="st31" d="M460.18,235.54l6.88-1.68l5.9-13.54c-2.08-1.68-3.41-4.22-3.41-7.06c0-4.05,2.66-7.46,6.3-8.68l-1.39-6.48
		l-6.77,3.7l-1.1,0.58l-8.45,19.67l1.04,13.77L460.18,235.54z"/>
	
		<linearGradient id="SVGID_32_" gradientUnits="userSpaceOnUse" x1="527.5981" y1="414.5688" x2="677.6931" y2="414.5688" gradientTransform="matrix(1 0 0 -1 3.051759e-05 596.7244)">
		<stop  offset="0" style="stop-color:#44AC38"/>
		<stop  offset="0.487" style="stop-color:#24716C"/>
		<stop  offset="0.8389" style="stop-color:#234773"/>
		<stop  offset="1" style="stop-color:#233770"/>
	</linearGradient>
	<polygon class="st32" points="487.43,172.55 486.67,167.93 482.1,171.17 479.39,173.07 467.87,190.2 467.41,196.38 474.47,192.57 	
		"/>
	
		<linearGradient id="SVGID_33_" gradientUnits="userSpaceOnUse" x1="527.5981" y1="364.3033" x2="677.6931" y2="364.3033" gradientTransform="matrix(1 0 0 -1 3.051759e-05 596.7244)">
		<stop  offset="0" style="stop-color:#44AC38"/>
		<stop  offset="0.487" style="stop-color:#24716C"/>
		<stop  offset="0.8389" style="stop-color:#234773"/>
		<stop  offset="1" style="stop-color:#233770"/>
	</linearGradient>
	<path class="st33" d="M478.75,222.41c-0.46,0-0.87-0.06-1.33-0.12l-6.02,13.77l5.96,19.9l17.41-1.85l7.52-16.02l4.28-9.14
		l-1.5-3.41l-7.29-16.66l-4.45,1.16l-5.55,1.45c0.12,0.58,0.17,1.21,0.17,1.85C487.95,218.31,483.84,222.41,478.75,222.41z"/>
	
		<linearGradient id="SVGID_34_" gradientUnits="userSpaceOnUse" x1="527.5981" y1="341.571" x2="677.6931" y2="341.571" gradientTransform="matrix(1 0 0 -1 3.051759e-05 596.7244)">
		<stop  offset="0" style="stop-color:#44AC38"/>
		<stop  offset="0.487" style="stop-color:#24716C"/>
		<stop  offset="0.8389" style="stop-color:#234773"/>
		<stop  offset="1" style="stop-color:#233770"/>
	</linearGradient>
	<path class="st34" d="M535.61,253.88c0-5.78,3.07-10.87,7.64-13.77l-6.71-11.86l-2.26,0.29l-23.43,2.78l-4.28,9.14l-7.46,15.96
		l12.15,25.62h26.09l6.83-13.82C539.02,265.39,535.61,260.07,535.61,253.88z"/>
	
		<linearGradient id="SVGID_35_" gradientUnits="userSpaceOnUse" x1="527.5981" y1="313.6907" x2="677.6931" y2="313.6907" gradientTransform="matrix(1 0 0 -1 3.051759e-05 596.7244)">
		<stop  offset="0" style="stop-color:#44AC38"/>
		<stop  offset="0.487" style="stop-color:#24716C"/>
		<stop  offset="0.8389" style="stop-color:#234773"/>
		<stop  offset="1" style="stop-color:#233770"/>
	</linearGradient>
	<polygon class="st35" points="477.88,260.82 471.4,282.57 481.06,304.44 498.53,306.63 507.03,284.54 494.95,259.43 	"/>
	
		<linearGradient id="SVGID_36_" gradientUnits="userSpaceOnUse" x1="527.5981" y1="353.0239" x2="677.6931" y2="353.0239" gradientTransform="matrix(1 0 0 -1 3.051759e-05 596.7244)">
		<stop  offset="0" style="stop-color:#44AC38"/>
		<stop  offset="0.487" style="stop-color:#24716C"/>
		<stop  offset="0.8389" style="stop-color:#234773"/>
		<stop  offset="1" style="stop-color:#233770"/>
	</linearGradient>
	<path class="st36" d="M453.65,226.81l-3.41,3.18c-1.21,5.84-3.47,18.28-3.18,30.6l2.26-0.06l5.26-21.86L453.65,226.81z"/>
	
		<linearGradient id="SVGID_37_" gradientUnits="userSpaceOnUse" x1="527.5981" y1="337.2328" x2="677.6931" y2="337.2328" gradientTransform="matrix(1 0 0 -1 3.051759e-05 596.7244)">
		<stop  offset="0" style="stop-color:#44AC38"/>
		<stop  offset="0.487" style="stop-color:#24716C"/>
		<stop  offset="0.8389" style="stop-color:#234773"/>
		<stop  offset="1" style="stop-color:#233770"/>
	</linearGradient>
	<polygon class="st37" points="467.12,238.84 461.63,240.17 459.02,240.81 454.22,260.76 458.85,279.27 467.01,280.14 
		473.08,258.57 	"/>
</g>
</svg>
