<svg xmlns="http://www.w3.org/2000/svg" width="200" height="120" fill="rgb(8.627451%,34.117647%,53.333333%)" xmlns:v="https://vecta.io/nano"><path d="M.008 41.285h20.047L52.84 76.797V41.285h24.211v78.758H56.875L24.199 84.551v35.492H.008zm148.851 64.403h12.199c6.484 0 11.059-2.508 11.059-8.754 0-7.078-3.598-8.75-11.059-8.75h-12.199zm0-33.129h10.734c6.723 0 11.668-1.777 11.668-8.437 0-6.465-5.301-8.434-11.668-8.434h-10.734zm-26.406-31.258h44.645c20.918 0 30.578 7.5 30.578 20.633 0 8.262-5.98 15.141-15.086 17.391v.207c10.734 1.93 17.414 10.023 17.414 19.387 0 10.094-2.691 21.141-29.594 21.141h-47.957zm-6.543-6.715H84.922V.094"/><path d="M84.918 41.285v.211l29.867 33.266H84.918v45.281h30.18V41.285zm0 0"/></svg>